<?xml version="1.0" standalone="no"?><!DOCTYPE svg PUBLIC "-//W3C//DTD SVG 1.1//EN" "http://www.w3.org/Graphics/SVG/1.1/DTD/svg11.dtd"><svg t="1587871528088" class="icon" viewBox="0 0 1024 1024" version="1.1" xmlns="http://www.w3.org/2000/svg" p-id="1942" xmlns:xlink="http://www.w3.org/1999/xlink" width="128" height="128"><defs><style type="text/css"></style></defs><path d="M520.777143 795.794286c187.977143 0 340.114286-157.257143 340.114286-351.085715s-152.868571-351.085714-340.114286-351.085714-340.114286 157.257143-340.114286 351.085714 152.868571 351.085714 340.114286 351.085715z m0-640.731429c154.331429 0 279.405714 130.194286 279.405714 290.377143 0 160.182857-125.074286 290.377143-279.405714 290.377143C366.445714 735.085714 241.371429 604.891429 241.371429 445.44 241.371429 285.257143 366.445714 155.062857 520.777143 155.062857z" fill="#2C2C2C" p-id="1943"></path><path d="M824.32 672.914286c-16.091429-7.314286-35.108571 0.731429-42.422857 16.822857-5.851429 14.628571-0.731429 31.451429 12.434286 39.497143 21.942857 11.702857 27.062857 20.48 27.794285 22.674285-2.194286 21.211429-106.788571 69.485714-301.348571 69.485715-191.634286 0-299.154286-49.737143-300.617143-69.485715 0-1.462857 5.12-10.24 26.331429-21.942857 15.36-8.777143 20.48-28.525714 11.702857-43.885714-8.777143-14.628571-27.062857-20.48-42.422857-12.434286-49.005714 26.331429-59.977143 57.051429-59.977143 78.262857 0 92.16 189.44 133.851429 364.982857 133.851429s364.982857-41.691429 364.982857-133.851429c0-21.211429-10.24-51.931429-61.44-78.994285zM520.777143 280.137143c-87.04 0-157.257143 70.217143-157.257143 157.257143s70.217143 157.257143 157.257143 157.257143 157.257143-70.217143 157.257143-157.257143c0-86.308571-70.217143-156.525714-157.257143-157.257143z m-54.125714 157.988571c-35.84 0-64.365714-28.525714-64.365715-64.365714s28.525714-64.365714 64.365715-64.365714 64.365714 28.525714 64.365714 64.365714c0 35.108571-29.257143 64.365714-64.365714 64.365714z" fill="#2C2C2C" p-id="1944"></path></svg>