<?xml version="1.0" standalone="no"?><!DOCTYPE svg PUBLIC "-//W3C//DTD SVG 1.1//EN" "http://www.w3.org/Graphics/SVG/1.1/DTD/svg11.dtd"><svg t="1588152895516" class="icon" viewBox="0 0 1024 1024" version="1.1" xmlns="http://www.w3.org/2000/svg" p-id="2154" width="128" height="128" xmlns:xlink="http://www.w3.org/1999/xlink"><defs><style type="text/css"></style></defs><path d="M25.6 25.6v972.8h972.8V25.6H25.6z m358.4 51.2h256v256h-256v-256z m256 307.2v256h-256v-256h256z m-563.2-307.2h256v256h-256v-256z m0 307.2h256v256h-256v-256z m0 563.2v-256h256v256h-256z m307.2 0v-256h256v256h-256z m563.2 0h-256v-256h256v256z m0-307.2h-256v-256h256v256z m0-307.2h-256v-256h256v256z" fill="#2c8ee9" p-id="2155"></path></svg>